<svg version="1.1" viewBox="0.0 0.0 960.0 540.0" fill="none" stroke="none" stroke-linecap="square" stroke-miterlimit="10"
xmlns:xlink="http://www.w3.org/1999/xlink"
xmlns="http://www.w3.org/2000/svg">
<clipPath id="g5d5d59f76c_0_27.0">
<path d="m0 0l960.0 0l0 540.0l-960.0 0l0 -540.0z" clip-rule="nonzero"/>
</clipPath>
<g clip-path="url(#g5d5d59f76c_0_27.0)">
<path fill="#ffffff" d="m0 0l960.0 0l0 540.0l-960.0 0z" fill-rule="evenodd"/>
<path fill="#b0b0b0" d="m620.8167 29.1087l174.85486 240.89102l-174.85486 240.89102l104.46295 0l174.82898 -240.89102l-174.82898 -240.89102l-104.46295 0z" fill-rule="evenodd"/>
<path fill="#0f51a9" d="m74.78869 324.2217l124.37032 0l0 3.0517578E-5l536.62 0l-55.450745 76.39859l-481.16925 0l0 -1.2207031E-4l-124.37032 0z" fill-rule="evenodd"/>
<path fill="#2e2e2e" d="m74.78864 416.6427l124.37028 0l0 6.1035156E-5l469.53253 0l-55.452637 76.3985l-414.0799 0l0 -6.1035156E-5l-124.37028 0z" fill-rule="evenodd"/>
<path fill="#0a67d4" d="m74.78869 231.80075l124.37032 0l0 4.5776367E-5l548.22833 0l27.731506 38.199234l-27.731506 38.19925l-548.22833 0l0 -3.0517578E-5l-124.37032 0z" fill-rule="evenodd"/>
<path fill="#1bb1ec" d="m74.78869 139.37976l124.37032 0l481.16925 0l55.450745 76.39859l-536.62 0l0 -7.6293945E-5l-124.37032 0z" fill-rule="evenodd"/>
<path fill="#27ac95" d="m74.78864 46.95882l124.37028 0l414.0799 0l55.452637 76.3985l-469.53253 0l-124.37028 0z" fill-rule="evenodd"/>
</g>
</svg>