<svg version="1.1" viewBox="0.0 0.0 960.0 540.0" fill="none" stroke="none" stroke-linecap="square" stroke-miterlimit="10"
xmlns:xlink="http://www.w3.org/1999/xlink"
xmlns="http://www.w3.org/2000/svg">
<clipPath id="g5bc05d4646_0_30.0">
<path d="m0 0l960.0 0l0 540.0l-960.0 0l0 -540.0z" clip-rule="nonzero"/>
</clipPath>
<g clip-path="url(#g5bc05d4646_0_30.0)">
<path fill="#ffffff" d="m0 0l960.0 0l0 540.0l-960.0 0z" fill-rule="evenodd"/>
<path fill="__COLOR_1__" d="m611.71533 183.65562c-23.072815 -24.585083 -52.58783 -42.194733 -85.17981 -50.831985c-38.346283 -10.159409 -78.97006 -7.443245 -115.61514 7.7365265l0 132.92421c4.6480103 -9.195831 11.080902 -17.379211 18.908173 -24.075348c8.096893 -6.9125977 17.523102 -12.100525 27.70227 -15.235626l154.18451 -50.517776z" fill-rule="evenodd"/>
<path fill="__COLOR_2__" d="m402.2622 144.02945c-30.021667 14.24939 -55.545227 36.462555 -73.790985 64.2392c-22.27356 33.909668 -32.596313 74.27783 -29.328247 114.71719l126.972565 40.734314c-7.3501587 -7.007721 -13.210999 -15.419037 -17.232788 -24.735535c-4.5282593 -10.496338 -6.6205444 -21.877533 -6.1200867 -33.299408l-0.50045776 -161.65576z" fill-rule="evenodd"/>
<path fill="__COLOR_3__" d="m515.5534 377.40887l-77.485596 107.409546c-38.08972 -9.234863 -72.21094 -30.4758 -97.29828 -60.59018c-21.986359 -26.386383 -36.055603 -58.4498 -40.59247 -92.49768l157.13501 50.49066c9.64209 2.9837952 19.772736 4.0681458 29.833618 3.2034912c9.891357 -0.8504944 19.533447 -3.564972 28.407715 -8.015839z" fill-rule="evenodd"/>
<path fill="__COLOR_4__" d="m556.52795 295.11505l78.211975 107.83136c-20.258545 33.262634 -50.720154 59.067474 -86.85205 73.58957c-31.946472 12.838379 -66.8974 16.233246 -100.710815 9.791199l94.27637 -131.11975c6.4431763 -8.272186 11.114868 -17.78888 13.737244 -27.93695c2.7092285 -10.504974 3.1694946 -21.467438 1.3372803 -32.155426z" fill-rule="evenodd"/>
<path fill="__COLOR_5__" d="m492.03418 231.86221l125.81555 -41.635056c25.137695 29.45868 40.23938 66.149155 43.105713 104.7567c2.5804443 34.79236 -4.914795 69.59421 -21.580627 100.2392l-96.755554 -132.68738c-5.549988 -7.6209106 -12.465637 -14.150421 -20.389648 -19.256332c-9.14679 -5.903122 -19.43689 -9.7942505 -30.195435 -11.4171295z" fill-rule="evenodd"/>
</g>
<g class="text-group">
		<text x="380" y="54" fill="__TEXT_COLOR_tit__" text-anchor="start
        " style="
            font-size: __FONT_SIZE_tit__;
            font-weight: bold;
            text-decoration: capitalize;
        ">__TITLE__</text>

		<text x="480" y="180" fill="__NUM_COLOR__" text-anchor="start
        " style="
            font-size: __FONT_SIZE_NUM__;
            font-weight: bold;
        ">__NUMBER_1__</text>
    
		<text x="775" y="150" fill="__TEXT_COLOR_1__" text-anchor="start
        " style="
            font-size: __FONT_SIZE_1__;
            font-weight: bold;
        ">__TEXT_1__</text>
        
		<text x="775" y="182" fill="__SUB_COLOR__" text-anchor="start
        " style="
            font-size: FONT_SIZE_SUB;
        ">__SUB_TEXT_1__</text>

		<text x="580" y="275" fill="__NUM_COLOR__" text-anchor="start
        " style="
            font-size: __FONT_SIZE_NUM__;
            font-weight: bold;
        ">__NUMBER_2__</text>

		<text x="775" y="280" fill="__TEXT_COLOR_2__" text-anchor="start
        " style="
            font-size: __FONT_SIZE_2__;
            font-weight: bold;
        ">__TEXT_2__</text>
        
		<text x="775" y="310" fill="__SUB_COLOR__" text-anchor="start" style="
            font-size: FONT_SIZE_SUB;
        ">__SUB_TEXT_2__</text>

        <text x="560" y="420" fill="__NUM_COLOR__" text-anchor="start
        " style="
            font-size: __FONT_SIZE_NUM__;
            font-weight: bold;
        ">__NUMBER_3__</text>
        
		<text x="775" y="420" fill="__TEXT_COLOR_3__" text-anchor="start" style="
            font-size: __FONT_SIZE_3__;
            font-weight: bold;
        ">__TEXT_3__</text>

        <text x="775" y="450" fill="__SUB_COLOR__" text-anchor="start" style="
            font-size: FONT_SIZE_SUB;
        ">__SUB_TEXT_3__</text>
        
		<text x="390" y="418" fill="__NUM_COLOR__" text-anchor="start" style="
            font-size: __FONT_SIZE_NUM__;
            font-weight: bold;
        ">__NUMBER_4__</text>

        <text x="170" y="360" fill="__TEXT_COLOR_4__" text-anchor="end" style="
            font-size: __FONT_SIZE_4__;
            font-weight: bold;
        ">__TEXT_4__</text>

        <text x="170" y="380" fill="__SUB_COLOR__" text-anchor="end" style="
            font-size: FONT_SIZE_SUB;
        ">__SUB_TEXT_4__</text>

        <text x="340" y="260" fill="__NUM_COLOR__" text-anchor="start" style="
            font-size: __FONT_SIZE_NUM__;
            font-weight: bold;
        ">__NUMBER_5__</text>

        <text x="170" y="220" fill="__TEXT_COLOR_5__" text-anchor="end" style="
            font-size: __FONT_SIZE_5__;
            font-weight: bold;
        ">__TEXT_5__</text>

        <text x="170" y="240" fill="__SUB_COLOR__" text-anchor="end" style="
            font-size: FONT_SIZE_SUB;
        ">__SUB_TEXT_5__</text>
	</g>
</svg>